<?xml version="1.0" encoding="UTF-8"?>
<svg id="Layer_2" data-name="Layer 2" xmlns="http://www.w3.org/2000/svg" viewBox="0 0 144.44 126.42">
  <defs>
    <style>
      .cls-1 {
        fill: #183153;
      }
    </style>
  </defs>
  <g id="Layer_2-2" data-name="Layer 2">
    <path class="cls-1" d="M126.18,0H18.26C8.18,0,0,8.17,0,18.26V108.17c0,10.08,8.18,18.25,18.26,18.25H126.18c10.09,0,18.26-8.17,18.26-18.25V18.26c0-10.09-8.17-18.26-18.26-18.26ZM27.63,35.88c-5.07,0-9.19-4.12-9.19-9.2s4.12-9.19,9.19-9.19,9.2,4.11,9.2,9.19-4.12,9.2-9.2,9.2Zm96.96-4.27c-1.26,1.26-3,2.04-4.92,2.04H52.31c-3.85,0-6.97-3.12-6.97-6.97,0-1.93,.78-3.67,2.04-4.93s3-2.04,4.93-2.04H119.67c3.84,0,6.96,3.12,6.96,6.97,0,1.93-.78,3.67-2.04,4.93Z"/>
  </g>
</svg>