<?xml version="1.0" encoding="UTF-8"?>
<svg id="Layer_2" data-name="Layer 2" xmlns="http://www.w3.org/2000/svg" viewBox="0 0 404.65 357.68">
  <defs>
    <style>
      .cls-1 {
        fill: #183153;
      }
    </style>
  </defs>
  <path class="cls-1" d="M229.54,115.87h-54.45c-19.74,0-35.74,16-35.74,35.74v54.45c0,19.74,16,35.74,35.74,35.74h54.45c19.74,0,35.75-16,35.75-35.74v-54.45c0-19.74-16.01-35.74-35.75-35.74Zm23.1,89.16c0,13.32-10.8,24.13-24.13,24.13h-52.38c-13.33,0-24.13-10.81-24.13-24.13v-52.39c0-13.33,10.8-24.13,24.13-24.13h52.38c13.33,0,24.13,10.8,24.13,24.13v52.39Z"/>
  <path class="cls-1" d="M202.32,146.25c-17.99,0-32.58,14.59-32.58,32.58s14.59,32.59,32.58,32.59,32.58-14.59,32.58-32.59-14.59-32.58-32.58-32.58Zm0,54.14c-11.9,0-21.55-9.65-21.55-21.56s9.65-21.55,21.55-21.55,21.55,9.65,21.55,21.55-9.65,21.56-21.55,21.56Z"/>
  <circle class="cls-1" cx="236.13" cy="144.51" r="7.42"/>
</svg>