<?xml version="1.0" encoding="UTF-8"?>
<svg id="Layer_2" data-name="Layer 2" xmlns="http://www.w3.org/2000/svg" viewBox="0 0 194.06 171.11">
  <defs>
    <style>
      .cls-1 {
        fill: #1c3154;
      }
    </style>
  </defs>
  <g id="Layer_2-2" data-name="Layer 2">
    <path class="cls-1" d="M126.68,90.11v-7.63c0-4.21-3.41-7.62-7.62-7.62s-7.62,3.41-7.62,7.62v24.08H21.82c-12.05,0-21.82,9.77-21.82,21.82v20.9c0,12.06,9.77,21.82,21.82,21.82H172.24c12.05,0,21.82-9.76,21.82-21.82v-20.9c0-12.05-9.77-21.82-21.82-21.82h-45.56v-16.45m-94.4,59.79c-6.12,0-11.07-4.95-11.07-11.06s4.95-11.07,11.07-11.07,11.06,4.95,11.06,11.07-4.95,11.06-11.06,11.06Zm32.07,0c-6.12,0-11.07-4.95-11.07-11.06s4.95-11.07,11.07-11.07,11.06,4.95,11.06,11.07-4.95,11.06-11.06,11.06Z"/>
    <path class="cls-1" d="M149.37,62.55c-1.64,0-3.29-.53-4.68-1.61-24.67-19.28-50.07-.72-51.14,.08-3.36,2.51-8.13,1.84-10.65-1.51-2.53-3.35-1.88-8.1,1.46-10.64,.36-.28,9.03-6.79,21.76-10.04,17.26-4.41,33.84-.92,47.95,10.11,3.31,2.59,3.9,7.38,1.31,10.69-1.5,1.92-3.74,2.93-6.01,2.93Z"/>
    <path class="cls-1" d="M61.95,34.48c-2.3,0-4.57-1.04-6.07-3.01-2.55-3.35-1.89-8.13,1.45-10.67,.63-.48,15.74-11.83,38.16-17.57,30.09-7.7,59-1.6,83.61,17.63,3.31,2.59,3.9,7.38,1.31,10.69-2.59,3.31-7.38,3.9-10.69,1.31-21.05-16.44-44.75-21.45-70.46-14.87-19.47,4.98-32.58,14.83-32.71,14.93-1.38,1.05-3,1.55-4.6,1.55Z"/>
  </g>
</svg>