<?xml version="1.0" encoding="UTF-8"?>
<svg id="Layer_2" data-name="Layer 2" xmlns="http://www.w3.org/2000/svg" viewBox="0 0 404.65 357.68">
  <defs>
    <style>
      .cls-1 {
        fill: #183153;
      }
    </style>
  </defs>
  <path class="cls-1" d="M272.35,249.85l-14.32,14.32c-4,4-10.49,4-14.49,0l-32.74-32.73c-6.18-6.19-7.56-15.37-4.11-22.89l-31.45-31.46h-16.51l-27.2-35.4,18.16-17.37,35.26,27.13v16.4l-.16,.15,30.98,30.97c2.95-1.54,6.19-2.31,9.44-2.31,5.22,0,10.43,1.98,14.41,5.96l32.73,32.74c4,4,4,10.49,0,14.49Z"/>
  <path class="cls-1" d="M201.99,172.54l-7.84-7.84,.39-19.06s9.58-14.23,21.39-17.71,23.13-4.35,30.1,0,1.55,13.45,1.55,13.45l-17.13,16.65,.97,9.77,10.06,1.55s16.16-16.26,18.29-18.29,10.84-2.03,12.87,4.65,3.1,22.65-2.32,31.65-10.26,14.32-15.87,17.42l-9.29-9.58s16.35-7.94,16.16-27.48l-15.68,15.68-25.45-4.26-3.39-25.74,14.9-15.1s-29.99-2.23-29.7,34.26Z"/>
  <path class="cls-1" d="M145.97,240.49l-1.12,1.12c.33-.41,.71-.79,1.12-1.12Z"/>
  <path class="cls-1" d="M145.97,240.49l-1.12,1.12c.33-.41,.71-.79,1.12-1.12Z"/>
  <path class="cls-1" d="M198.82,233.05l-30.34,30.34-.04-.04c-4.14,4.33-9.97,7.02-16.43,7.02-12.55,0-22.72-10.17-22.72-22.72,0-5.96,2.3-11.39,6.07-15.45l40.33-40.33,9.44,9.45-25.08,25.08-14,14.01s-.06,.05-.08,.08c-.41,.33-.79,.71-1.12,1.12-.02,.01-.03,.02-.05,.04-1.36,1.63-2.18,3.73-2.18,6.02,0,5.2,4.22,9.41,9.41,9.41,2.78,0,5.28-1.2,7-3.13,.02-.01,.04-.03,.05-.05l14.21-14.21,21.23-21.24c-.75,8.59,3.14,13.15,4.3,14.6Z"/>
  <path class="cls-1" d="M145.97,240.49l-1.12,1.12c.33-.41,.71-.79,1.12-1.12Z"/>
</svg>