<?xml version="1.0" encoding="UTF-8"?>
<svg id="Layer_2" data-name="Layer 2" xmlns="http://www.w3.org/2000/svg" viewBox="0 0 125.28 125.86">
  <defs>
    <style>
      .cls-1 {
        fill: #183153;
      }
    </style>
  </defs>
  <g id="Layer_2-2" data-name="Layer 2">
    <path class="cls-1" d="M63.1,0C28.81,0,.92,27.89,.92,62.18c0,9.18,1.96,18.03,5.82,26.31,.71,1.52,1.49,3.01,2.32,4.47L0,125.86l33.62-8.93c1.58,.86,3.2,1.64,4.86,2.35,7.79,3.37,16.07,5.08,24.62,5.08,34.29,0,62.18-27.89,62.18-62.18S97.39,0,63.1,0Zm0,115.36c-5.04,0-15.04-1.94-15.73-2.07-.01,0-.03,0-.05-.01-1.65-.49-9.19-3.39-13.02-6.39l-11.61,2.54-8.26,1.8,2.82-7.06,3.79-9.46c-.52-.66-1.02-1.34-1.5-2.03-1.77-2.51-3.33-5.19-4.64-8-.8-1.72-1.51-3.46-2.11-5.24h0c-1.91-5.54-2.87-11.32-2.87-17.26,0-29.32,23.86-53.18,53.18-53.18s53.18,23.86,53.18,53.18-23.86,53.18-53.18,53.18Z"/>
    <path class="cls-1" d="M78.49,92.05c-18.78-.48-48.87-27.58-47.13-45.58,.68-7.03,6.32-12.13,8.22-12.42,1.91-.29,3.62-.19,5.71,0,2.1,.19,7.45,13.32,7.26,15.47-.19,2.14-5.52,8.13-5.52,8.13,0,0,2.18,13.4,23.81,21.14,1.27,.38,6.76-7.35,7.74-8.42,1.62-1.76,15.58,6.87,15.58,6.87,0,0,3.1,15.29-15.67,14.81Z"/>
  </g>
</svg>