<?xml version="1.0" encoding="UTF-8"?>
<svg id="Layer_2" data-name="Layer 2" xmlns="http://www.w3.org/2000/svg" viewBox="0 0 404.65 357.68">
  <defs>
    <style>
      .cls-1 {
        fill: #333;
      }
    </style>
  </defs>
  <path class="cls-1" d="M240.48,90.58h-76.32c-27.67,0-50.1,22.43-50.1,50.1v76.32c0,27.67,22.43,50.1,50.1,50.1h76.32c27.67,0,50.11-22.43,50.11-50.1v-76.32c0-27.67-22.44-50.1-50.11-50.1Zm32.38,124.98c0,18.67-15.14,33.82-33.82,33.82h-73.42c-18.68,0-33.82-15.15-33.82-33.82v-73.44c0-18.68,15.14-33.82,33.82-33.82h73.42c18.68,0,33.82,15.14,33.82,33.82v73.44Z"/>
  <path class="cls-1" d="M202.32,133.16c-25.22,0-45.67,20.45-45.67,45.67s20.45,45.68,45.67,45.68,45.67-20.45,45.67-45.68-20.45-45.67-45.67-45.67Zm0,75.89c-16.68,0-30.21-13.53-30.21-30.22s13.53-30.21,30.21-30.21,30.21,13.53,30.21,30.21-13.53,30.22-30.21,30.22Z"/>
  <circle class="cls-1" cx="249.71" cy="130.73" r="10.4"/>
</svg>