<?xml version="1.0" encoding="UTF-8"?>
<svg id="Layer_2" data-name="Layer 2" xmlns="http://www.w3.org/2000/svg" viewBox="0 0 404.65 357.68">
  <defs>
    <style>
      .cls-1 {
        fill: #c15252;
      }
    </style>
  </defs>
  <path class="cls-1" d="M256.28,115.63h-107.92c-10.08,0-18.26,8.17-18.26,18.26v89.91c0,10.08,8.18,18.25,18.26,18.25h107.92c10.09,0,18.26-8.17,18.26-18.25v-89.91c0-10.09-8.17-18.26-18.26-18.26Zm-98.55,35.88c-5.07,0-9.19-4.12-9.19-9.2s4.12-9.19,9.19-9.19,9.2,4.11,9.2,9.19-4.12,9.2-9.2,9.2Zm96.96-4.27c-1.26,1.26-3,2.04-4.92,2.04h-67.36c-3.85,0-6.97-3.12-6.97-6.97,0-1.93,.78-3.67,2.04-4.93,1.26-1.26,3-2.04,4.93-2.04h67.36c3.84,0,6.96,3.12,6.96,6.97,0,1.93-.78,3.67-2.04,4.93Z"/>
</svg>