<?xml version="1.0" encoding="UTF-8"?>
<svg id="Layer_2" data-name="Layer 2" xmlns="http://www.w3.org/2000/svg" viewBox="0 0 404.65 357.68">
  <defs>
    <style>
      .cls-1 {
        fill: #c15252;
      }
    </style>
  </defs>
  <path class="cls-1" d="M263.05,134.11h-23.92l3.74-22.81c.91-5.51-2.82-10.71-8.34-11.62-5.51-.91-10.73,2.83-11.64,8.35l-4.29,26.08h-35.45l3.63-22.08c.9-5.51-2.83-10.71-8.35-11.62-5.51-.9-10.73,2.83-11.62,8.35l-4.17,25.36h-27.63c-5.59,0-10.12,4.53-10.12,10.12s4.53,10.12,10.12,10.12h24.3l-7.88,47.98h-28.42c-5.59,0-10.12,4.54-10.12,10.12s4.53,10.12,10.12,10.12h25.08l-3.91,23.81c-.91,5.51,2.82,10.73,8.34,11.62,.56,.09,1.11,.14,1.66,.14,4.87,0,9.16-3.52,9.98-8.47l4.45-27.09h35.47l-3.79,23.08c-.91,5.51,2.82,10.73,8.34,11.62,.56,.1,1.11,.14,1.66,.14,4.87,0,9.16-3.52,9.97-8.47l4.34-26.37h26.46c5.59,0,10.12-4.53,10.12-10.12s-4.53-10.12-10.12-10.12h-23.13l7.88-47.98h27.26c5.59,0,10.12-4.53,10.12-10.12s-4.53-10.12-10.12-10.12Zm-55.64,68.22h-35.47l7.89-47.98h35.45l-7.88,47.98Z"/>
</svg>