<?xml version="1.0" encoding="UTF-8"?>
<svg id="Layer_2" data-name="Layer 2" xmlns="http://www.w3.org/2000/svg" viewBox="0 0 404.65 357.68">
  <defs>
    <style>
      .cls-1 {
        fill: #c15252;
      }
    </style>
  </defs>
  <path class="cls-1" d="M225.64,189.92v-6c0-3.31-2.68-5.99-5.99-5.99s-5.99,2.68-5.99,5.99v18.93h-70.49c-9.48,0-17.16,7.69-17.16,17.16v16.44c0,9.48,7.69,17.16,17.16,17.16h118.3c9.48,0,17.16-7.68,17.16-17.16v-16.44c0-9.48-7.69-17.16-17.16-17.16h-35.83v-12.94m-74.24,47.02c-4.81,0-8.71-3.9-8.71-8.7s3.9-8.71,8.71-8.71,8.7,3.9,8.7,8.71-3.9,8.7-8.7,8.7Zm25.22,0c-4.81,0-8.71-3.9-8.71-8.7s3.9-8.71,8.71-8.71,8.7,3.9,8.7,8.71-3.9,8.7-8.7,8.7Z"/>
  <path class="cls-1" d="M243.49,168.25c-1.29,0-2.59-.41-3.68-1.27-19.4-15.16-39.38-.57-40.22,.06-2.64,1.98-6.39,1.45-8.38-1.18-1.99-2.63-1.48-6.37,1.15-8.37,.29-.22,7.1-5.34,17.11-7.9,13.58-3.47,26.62-.72,37.71,7.95,2.61,2.04,3.07,5.8,1.03,8.41-1.18,1.51-2.94,2.3-4.72,2.3Z"/>
  <path class="cls-1" d="M174.73,146.17c-1.81,0-3.59-.82-4.77-2.37-2-2.63-1.49-6.39,1.14-8.39,.5-.38,12.38-9.31,30.01-13.81,23.67-6.05,46.4-1.26,65.76,13.86,2.61,2.04,3.07,5.8,1.03,8.41-2.04,2.61-5.8,3.07-8.41,1.03-16.55-12.93-35.2-16.87-55.41-11.7-15.31,3.91-25.63,11.67-25.73,11.75-1.08,.82-2.36,1.22-3.62,1.22Z"/>
</svg>