<?xml version="1.0" encoding="UTF-8"?>
<svg id="Layer_2" data-name="Layer 2" xmlns="http://www.w3.org/2000/svg" viewBox="0 0 404.65 357.68">
  <defs>
    <style>
      .cls-1 {
        fill: #c15252;
      }
    </style>
  </defs>
  <path class="cls-1" d="M239.76,174.35h-10.77l-8.73-9v121.79l35.5-8.53-16-104.26Z"/>
  <polygon class="cls-1" points="182.22 175.25 181.99 175.33 181.96 175.33 182.22 175.25"/>
  <path class="cls-1" d="M216.6,164.35c-.3,.08-2,.62-4.68,1.46-.73-5.84-7.78-14.41-16.13-13.3-3.15-4.05-8.43-6.97-16.61-1.77-14.32,9.09-17.76,31.13-17.76,31.13-8.91,2.84-15.6,4.95-15.27,4.87s-2.55,.55-2.74,2.45c-.19,1.9-10.87,83.61-10.87,83.61l84.68,14.45v-123.03c-.19,.03-.4,.07-.62,.13Zm-21.35-5.87c2.03,3.48,1.35,12.19,1.35,12.19l-14.38,4.58-.23,.08h-.03s3.72-15.04,12.34-18.38c.36,.53,.67,1.06,.95,1.53Zm-30.32,22.27s4.19-18.01,14.25-24.98c5.96-4.12,9.78-3.64,12.33-1.83-.56,.3-1.12,.65-1.68,1.06-11.13,8.03-11.86,21.6-11.86,21.6l-12.8,4.08c-.08,.02-.17,.05-.25,.08h.01Zm17.74,41.65c3.61,2.52,12.45,6.78,12.32,21.75-.13,14.96-12.06,20.32-21.03,20.13-8.97-.2-14.39-4.13-19.1-7.23-.34-.22,3.42-12.77,3.42-12.77,0,0,14,10.12,17.87,1.54,3.87-8.58-12-11.87-14.64-19.42-2.65-7.54-3.81-21.09,7.74-28.96s28.26-4,28.26-4l-4.52,16.06s-16.06-5.03-17.68,2.45c-1.61,7.49,3.74,7.94,7.36,10.45Zm16.93-52.69s.68-5.92,0-9.11c-.17-.82-.65-2.47-1.52-4.31,5.6,.26,8.53,6.17,9.97,10.74-2.45,.78-5.32,1.69-8.45,2.68Z"/>
  <path class="cls-1" d="M181.96,175.33h.03l.23-.08-.26,.08Z"/>
  <polygon class="cls-1" points="182.22 175.25 181.99 175.33 181.96 175.33 182.22 175.25"/>
</svg>