<?xml version="1.0" encoding="UTF-8"?>
<svg id="Layer_2" data-name="Layer 2" xmlns="http://www.w3.org/2000/svg" viewBox="0 0 404.65 357.68">
  <defs>
    <style>
      .cls-1 {
        fill: #c15252;
      }
    </style>
  </defs>
  <path class="cls-1" d="M202.32,90.58c-48.75,0-88.26,39.51-88.26,88.26s39.51,88.26,88.26,88.26,88.26-39.51,88.26-88.26-39.51-88.26-88.26-88.26Zm0,8.59c20.61,0,39.4,7.84,53.53,20.68,0,0-7.73,1.06-12.04,7.53-4.31,6.48-1.94,12.2,.62,16.71,2.56,4.51,11.45,15.46,11.45,27.11s-.64,14.14-.84,15.4c-.2,1.26-12.76,39.55-12.76,39.55l-29.18-85.47s8.73-.33,9.35-.73c.6-.4,2.1-.86,1.7-2.48-.4-1.63-.57-2.68-7.36-2.32-6.78,.37-37.51-.28-37.51-.28,0,0-2.32,.73-1.99,2.65,.33,1.9,1.42,3,10.52,3.12l12.8,35.44-17.69,50.8-29.21-85.71s-.43-.62,.86-.67c1.27-.06,7.07-.13,7.07-.13,0,0,3.53-.37,3.65-2.44,.13-2.07-.86-2.86-3.41-2.86s-26.66,.82-26.66,.82c14.16-22.09,38.92-36.71,67.1-36.71Zm-79.67,79.67c0-12.04,2.67-23.46,7.46-33.69l.1-.2h.01s39.15,106.44,39.15,106.44c-27.55-12.54-46.72-40.31-46.72-72.55Zm79.67,79.65c-8.14,0-16-1.22-23.4-3.49l25.02-70.67,25.3,69.5c-8.4,3.02-17.48,4.66-26.92,4.66Zm39.28-10.34c.39-1.16,26.24-75.46,27.93-82.11,1.07-4.21,3.2-16.61,1.99-26.66,6.65,11.63,10.46,25.1,10.46,39.46,0,29.71-16.27,55.61-40.38,69.31Z"/>
  <polygon class="cls-1" points="130.23 144.96 130.12 145.15 130.22 144.95 130.23 144.96"/>
</svg>